<?xml version="1.0" encoding="UTF-8"?>
<svg id="Layer_1" data-name="Layer 1" xmlns="http://www.w3.org/2000/svg" viewBox="0 0 931.48 355.24">
  <defs>
    <style>
      .cls-1 {
        fill: #65bb3a;
      }
    </style>
  </defs>
  <path class="cls-1" d="M513.95,21.12c-45.4-28.69-97.43-27.48-140.99,4.48l16.48,14.24c70.5-45.57,106.65,17.68,124.51-18.71ZM571.46,110.1h30.5c1.66-9.54,4.14-20.15-9.36-18.14l-1.5-1.5-2.07-57.93h-5.14s-4.06,57.93-4.06,57.93c-1.03,3.23-9.57-.66-10.84,6.16-.51,2.74-.76,12.57,2.47,13.47ZM494.96,46.1c-31.59-13.9-70.03-13-101,1.5-3,2.51,1.16,12.64.01,16.5,32.74-14.03,67.65-14.16,100.99-2v-16ZM494.96,86.1c.11-16.16,2.37-14.12-13.56-18.94-16.02-6.5-100.77-10.06-85.95,19.9,32.85-12.66,66.42-12.42,99.51-.96ZM357.96,109.1c.67-10.91-13.6-9.52-20.73-11.77-8.01-2.53-16.17-12.34-25.58-15.42-22.59-4.34-21.47,4.58-40.71-12.29-26.9-13.88-56.5.94-78.86,12.94-19.75-1.66-20.82.54-36.89,10.28-9.36,4.28-26.63,3.79-29.23,16.26h57c6.6-12.07,21.3-15.15,32.47-5.98,1.24.95,5.6,5.98,6.03,5.98h46.5v48.5l-30.48,25.52c-3.4,1.88-8.34,1.48-10.57,5.43-5.36,9.47,6.48,16.67,13.61,9.61,7.97-15.09,28.35-21.83,38.44-35.56v-53.5h79ZM394.96,96.1v14c32.5-10.2,66.37-10.81,99-1,10.06-32.21-81.55-22.41-99-13ZM196.96,130.1v53h-18.5l-31.5-20.5v-15.5c4.09-1.91,55.64,6.1,27.5-9-19.91-27.54-62.25-23.45-87.46-6.47-11.9,1.32-30.95,1.92-35.03,15.46h84v21.5l39.5,25.5h21.5c.07,25.84-.28,17.05,18,33.5,0,0,0,60.5,0,60.5,1.71-.14,10.11,2.06,11-.5,0,0,0-65,0-65l-17.07-13.93-.94-77.08c.48-2.52,5.32-3.78,6.54-8.46,5.15-36.34-47.88-9.43-17.53,6.97ZM493.96,119.1c-15.9-8.79-112.74-16.88-97.48,15,32.14-11.24,65.08-11.13,97.48-1v-14ZM593.96,115.1h-15l-3.99,120c6.52-.95,14.73-2.96,20.98-1l-1.99-119ZM226.96,153.1c-13.84,7.26,1.81,23.51,10.55,10.05v-44.11s-10.55-.94-10.55-.94v35ZM291.46,149.1h83c3.86-4.54-7.99-8.85-11.24-9.76-19.24-1.92-26.55-16.19-53.31-8.77-5.01,1.07-20.88,14.07-18.46,18.54ZM836.96,185.6v-40c-18.09-6.4-45.97-12.53-64.29-14.32-5.37-1.06-2.12,42.7-3.23,44.83,18.9,4.92,42.63,8.61,62.05,11,2.03.1,4.19.39,5.46-1.51ZM761.96,133.1c-29,9.82-67.38,20.63-98.99,25.51-5.4,2.37-4.58,22.44-4.06,28.04-1.02,18.84,47.7-6.15,59.66-5.43,51.28-2.29,40.35-1.13,43.38-48.12ZM493.96,142.1c-32.24-10.04-66.03-10.36-98,1v14c31.9-10.34,65.88-10.74,98-1v-14ZM558.96,173.1l-20.01-37-20.99,37h41ZM127.96,161.48c.14-9.33-14.51-9.33-14.38,0-.14,9.33,14.51,9.33,14.38,0ZM325.96,156.1l-11.56.94-1.44,21.56-69.5,44.5c-.82,21.9-1.08,43.22-.5,65.01,2.09-.35,10.3,1.1,10.75-1.46l.46-57.34,71.79-45.7v-27.5ZM343.87,163.37c.13-8.78-13.67-8.78-13.54,0-.13,8.78,13.67,8.78,13.54,0ZM493.86,165.2c-31.67-9.59-66.44-10.02-97.76,1.04l-.14,12.86c32.52-9.3,65.27-9.17,97.99-.99l-.1-12.9ZM194.96,282.1c-1.03-2.46,2.66-55.26-2.64-54.86,0,0-76.38-43.62-76.38-43.62-1.07-28.88-42.42-14.96-24.48,7.48,9.2,8.26,14.5.39,19.17,1.74,25.16,11.78,48.14,30.35,73.32,42.27v47h11ZM493.96,201.1c-.52-3.14,1.19-11.67-.98-13.51-23.99-8.14-57.03-9.38-82.22-3.19-16.69,4.66-13.65.29-13.79,16.7,32.53-7.83,64.57-9.55,96.99,0ZM539.96,180.1h-21v59.05h21v-59.05ZM547.96,180.1v57h11v-57h-11ZM806.96,232.6c.99-3.5,0-18.04,0-23,0-1.21-3.75-2.63-4.97-3.03-24.67-4.21-53.52-11.59-78.03-14.02,1.56,42.95-16.22,44.04,31.51,34.47,2.09-.73,52.26,11.57,51.5,5.57ZM618.96,216.6s0,29,0,29c0,.42,2.1,1.79,2.87,1.97,2.11-2.36,95.57-12.89,91.06-21.04,5.98-45.61,3.56-36.08-35.1-25.1-18.05,4.41-36.44,7.71-54.67,11.32-1.7.27-3.81,2.27-4.15,3.85ZM493.97,210.11c-17.97-5.67-105.15-17.58-97,13.99,31.13-9.35,64.6-9.51,95.98-1l1.01-12.99ZM388.96,273.09c-63.3-89.43-50.02-54.25-106,10l19.56-1.93,22.95-30.05-7.5,29.99c22.6-2.84,13.94.24,20-21,4.1-.69,4.32,14.4,6.06,17.93l13.97-1.4c2.13-3.32-6.43-20.97-7.03-26.53,6.93,1.76,15.54,18.65,20.17,24.83l17.82-1.85ZM493.97,233.11c-31.63-9.88-65.24-9.34-96.91.09,0,0-.1,12.91-.1,12.91,29.39-6.57,66.11-9.9,96,0l1.01-12.99ZM861.96,255.6c-.69,54.38,8.94,36.59-43,39.5-.22,3.6-2.74,8.08.5,11,59.95-1.38,54.09,11.93,53.48-51.29,10.5-5.07,11.35-21.71.73-26.92-19.05-8.67-28.95,18.42-11.71,27.71ZM749.96,273.1c-1.47-8.77,4.64-29.99-.64-35.88,0,0-86.78,12.95-86.78,12.95-6.56-.02-6.55,22.67-1.65,23.49,28.99-3.02,60.25-8.95,89.07-.57ZM758.96,239.6c-1.85,5.49,1.26,26.04-.82,32.85,5.45,6.96,65.59,10.99,74.85,8.18,1.38-7.86,2.82-17.92,2.04-26.09s-4.9-5.57-10.44-6.56c-9.78-.24-64.37-15.32-65.62-8.38ZM483.96,255.09c-25.92-11.48-59.36-6.29-86.01,1.51,28.71,5.67,57.47,3.13,86.01-1.51ZM638.72,256.34c-143.92,10.05-289.28,51.41-433.71,56.22,0,0-55.75-46.25-55.75-46.25l-71.8-2.2c-2.78-.53-3.54-4.4-5.59-6.41-10.33-10.11-29.53.32-23.59,15.6,4.73,12.17,21.14,11.76,27.28.97,80.65,1.72,63.39-4.9,123.87,47.88,145.06-1.8,291.03-42.28,436.02-56.06,4.31-.78,6.13-6.9,3.28-9.75ZM708.96,322.6c-1.25-1.2,2.84-47.62-2.4-45.45-31.67,5-65.33,6.99-96.07,12.98-2.09,3.08-3.28,29.67.13,33.01,0,0,94.89,1.01,94.89,1.01l3.45-1.55ZM717.96,279.6s0,43,0,43c0,3.94,17.86,2.27,21.54,2.46,18.06.56,39.3,5.49,56.88,2.15,1.04-8.61,1.93-15.9.54-24.65.02-4.35,3.32-10.06-1.65-13.26-1.88,1.1-78.27-16.23-77.31-9.69ZM27.1,315.25c35.48-.76,82.59-.45,118.22,3.99,13.55,6.86,30.32,27.16,43.96,33.05,130.64,1.38,263.8-33.65,394.31-48.05,4.8-.76,10.73,1.85,10.45-5.6-123.71-6.47-267.7,46.32-398.79,44.68-30.13-18.87-37.24-41.19-76.82-36.17-29.26-1.33-58.66-2.49-87.94-2.06-28.29-34.39-46.77,26.71-9.85,17.19,5.7-2.58,5.09-5.79,6.46-7.03ZM927.62,327.76c14.71-20.22-16.67-37.96-26.29-13.79-27.88,1.88-55.42,8.25-83.38,8.12,0,0-.88,8.43-.88,8.43,26.2,6.14,58.02-6.05,85.43-6.01,6.43,7.21,17.44,10.85,25.11,3.25Z"/>
  <path class="cls-1" d="M357.96,109.1h-79v53.5c-9.34,11.96-26.08,19.8-36,31-1.04,1.18-1.12,3.24-2.45,4.55-7.13,7.06-18.96-.14-13.61-9.61,2.24-3.95,7.17-3.55,10.57-5.43l30.48-25.52v-48.5h-46.5c-.42,0-4.78-5.03-6.02-5.98-11.36-8.65-21.3-6.41-31.05,2.94-1.16,1.11-1.26,3.03-1.43,3.03h-57c2.6-12.48,19.87-11.99,29.23-16.27,7.67-3.5,12.45-9.66,22.26-10.74,4.44-.49,11.22,1.03,14.63.46,5.17-.87,21.17-11.89,29.35-14.49,15.43-4.92,34.72-5.76,49.51,1.55,3.9,1.93,12.13,9.81,13.72,10.28,7.01,2.08,17.46-1.11,26.99,2.01,9.41,3.08,17.57,12.89,25.58,15.42,7.13,2.25,21.4.87,20.73,11.77Z"/>
  <path class="cls-1" d="M638.72,256.34c2.85,2.84,1.03,8.96-3.28,9.74-1.89.34-4.05-.25-5.97.03-108.74,15.59-217.28,33.26-326.15,47.85-24.98,3.35-54.13,8.73-78.82,10.18-6.84.4-19.07.79-25.08-2l-53.4-45.6-70.47-2.28c-6.13,10.79-22.55,11.2-27.28-.97-5.94-15.28,13.26-25.71,23.59-15.6,2.05,2.01,2.81,5.88,5.59,6.41l71.8,2.2,55.75,46.25c7.8.59,16.72,1.09,24.49.58,34.84-2.29,75.65-10.17,110.83-15.17,97.43-13.86,194.66-29.52,292.19-42.89,1.73-.08,4.99.04,6.21,1.26Z"/>
  <path class="cls-1" d="M27.1,315.25c-1.37,1.24-.77,4.45-6.46,7.03-23.73,10.75-29.68-31.29-3.23-27.1,7.4,1.17,9.48,9.2,13.08,9.91,11.33.29,22.7-.3,34.02-.02,17.82.43,36.1,1.49,53.92,2.08,14.04.47,23.71-3.09,35.87,5.13,13.8,9.31,26.81,21.94,40.95,31.05,16.52,2.22,33.57-.37,50.09-2.35,114.24-13.65,227.91-34.07,342.17-47.89,4.25-.78,6.37,1.36,6.53,5.55.29,7.45-5.65,4.84-10.45,5.59-90.4,14.11-181.57,26.48-272.25,38.75-30,4.06-65.19,10.41-94.84,12.17-6.53.39-21.38-.32-27.23-2.85-13.64-5.89-30.4-26.19-43.96-33.04-7.55-3.82-21.18-1.77-29.9-2.1-15.79-.6-32.13-1.85-47.92-2.08-5.1-.08-38.91-1.17-40.41.19Z"/>
  <path class="cls-1" d="M196.96,130.1c-.87-.97-5.48-.31-7.73-6.76-7.92-22.78,31.87-25.62,25.26-.21-1.22,4.69-6.05,5.94-6.54,8.46l.94,77.08,17.07,13.93v65l-1.63,1.43-9.37-.93v-60.5l-17.49-14.51-.51-18.99h-21.5l-39.5-25.5v-21.5H51.96c2.41-10.52,16.51-12.87,25.77-14.73,3.1-.62,6.06.09,9.26-.74,3.59-.93,11.05-6.54,15.61-8.39,16.83-6.83,45.94-7.72,60.83,3.88,3.84,2.99,7.26,7.69,11.02,10.98,2.25,1.96,11.3,5.1,7,9h-34.5v15.5l31.5,20.5h18.5v-53Z"/>
  <path class="cls-1" d="M708.96,322.6l-3.45,1.55-94.89-1.01c-1.61-.37-1.64-5.13-1.71-6.5-.26-4.82-.77-23.77,1.58-26.51,2.82-3.28,8.19-1.57,11.96-2.04,28.03-3.55,56.07-7.38,84.11-10.94.83-.23,2.4,1.03,2.4,1.45v44Z"/>
  <path class="cls-1" d="M761.96,133.1l-2.03,40.48c-.16,1.34-.78,2.37-2,3-2.67,1.39-16.51,3.04-20.48,3.52-5.84.7-13.01.31-18.87,1.13-16.14,2.24-38.6,12.18-53.4,12.66-4.92.16-5.87-3.02-6.26-7.23-.52-5.59-1.34-25.66,4.06-28.03,22.09-4.79,45.59-8.35,67.2-14.8,4.5-1.34,30.28-12.18,31.78-10.72Z"/>
  <path class="cls-1" d="M618.96,216.6c.34-1.58,2.46-3.58,4.15-3.85,18.23-3.61,36.62-6.92,54.67-11.33,9.39-2.29,23.36-8.18,31.96-9.14,4.47-.5,4.88,1.4,5.26,5.25.54,5.41-.96,23.49-2.13,28.99-.45,2.14-1.03,3.87-3.19,4.81l-87.86,16.24c-.77-.18-2.87-1.55-2.87-1.97v-29Z"/>
  <path class="cls-1" d="M717.96,279.6c.21-.73,2.32-2.49,3.43-2.41l73.88,12.11c4.97,3.2,1.68,8.92,1.65,13.26-.02,3.59,1,7.1.94,9.93-.09,4.27-1.25,10.2-1.48,14.72-2.02,1.43-14.55,1.04-17.96.93-12.86-.43-26.03-2.42-38.92-3.08-3.68-.19-21.54,1.48-21.54-2.46v-43Z"/>
  <path class="cls-1" d="M388.96,273.09l-17.82,1.85c-4.41-6.72-9.72-15.56-15.2-21.31-.77-.81-3.92-4.65-4.97-3.52,1.65,7.65,6.11,16.75,7.25,24.27.13.86,1.38,1.09-.22,2.26l-13.97,1.4c-1.42-5.19-2.13-11.56-3.97-16.53-.51-1.38.36-1.71-2.1-1.4l-4.14,18.87-15.86,2.13,7.5-29.99-22.95,30.05-19.56,1.93,48.65-62.84c5.71-3.39,11.9-2.41,16.74,1.96,13.3,17.1,29.07,32.52,40.61,50.88Z"/>
  <path class="cls-1" d="M836.96,185.6c-1.27,1.91-3.43,1.61-5.46,1.51-18.64-.92-39.91-8.1-58.97-9.09l-3.09-1.91.54-41.48c.2-1.56,1.17-2.9,2.69-3.35,2.97-.88,25.32,4.27,30.3,5.31,11.17,2.33,23.61,4.78,33.99,9.01v40Z"/>
  <path class="cls-1" d="M513.95,21.12c1.47,2.15-12.83,12.7-14.7,14.83-10.47-3.01-20.04-8.33-30.67-10.98-28.66-7.15-54.28.54-79.14,14.86l-16.48-14.24c12.18-4.87,24.73-15.82,36.79-20.2,10.28-3.73,34.66-5.93,45.69-5.29,22.31,1.3,38.79,12.25,58.5,21.01Z"/>
  <path class="cls-1" d="M758.96,239.6c.32-1.14,3.04-2.85,4.45-2.55,20.42,3.52,40.79,7.29,61.18,10.93,5.54.99,9.65-1.59,10.44,6.56s-.66,18.23-2.04,26.09c-2.5,2.52-16.25.8-20.52.47-14.84-1.15-34.58-2.54-48.95-5.05-1.85-.32-3.33-1.12-4.67-2.42l-.71-1.18c-.1-.93.82-1.58.82-1.85,0-6.43-1.27-26.49,0-31Z"/>
  <path class="cls-1" d="M806.96,232.6c-.21.73-2.32,2.49-3.43,2.41l-48.07-7.99c-7.75,0-24.72,6.2-30.97,5.12-.82-.14-1.58-.24-2.09-.98l1.56-38.6,1.89-.95c12.42,2.32,24.66,5.61,37.09,8.01,11.53,2.23,28.56,3.51,39.05,6.95,1.22.4,4.97,1.82,4.97,3.03,0,4.96.99,19.5,0,23Z"/>
  <path class="cls-1" d="M749.96,273.1l-27.62-4.88c-20.6-.49-40.95,4.1-61.45,5.45l-2.01-1.24c-1.58-2.53-2.99-22.36,3.66-22.26l86.78-12.95c1.73.55,1.53,1.93,1.69,3.33,1.23,10.53-1.69,21.96-1.05,32.55Z"/>
  <path class="cls-1" d="M593.96,115.1l1.99,119c-6.25-1.96-14.46.05-20.98,1l3.99-120h15Z"/>
  <path class="cls-1" d="M194.96,282.1h-11v-47c-21.8-10.4-42.16-25.66-63.33-37.17-2.42-1.32-7.77-4.45-9.99-5.1-4.67-1.35-9.98,6.52-19.17-1.74-12.65-11.37,3.38-31.64,18.24-21.24,7.05,4.94,3.95,11.47,6.23,13.77l76.38,43.62c.79.54,2.64,2.72,2.64,3.36v51.5Z"/>
  <path class="cls-1" d="M325.96,156.1v27.5l-71.79,45.7-.46,57.34c-.45,2.56-8.66,1.11-10.75,1.46,1.05-5.13-1.07-10.88-1.08-15.51,0-2.86,1.12-5.33,1.13-7.95.03-13.84-.52-27.73.45-41.55l69.5-44.5,1.44-21.56,11.56-.94Z"/>
  <path class="cls-1" d="M494.96,46.1v16c-33.34-12.16-68.25-12.03-100.99,2,1.14-3.86-3.01-14-.01-16.5s23.84-8.2,28.82-9.18c25.3-4.98,48.48-2.04,72.18,7.68Z"/>
  <path class="cls-1" d="M861.96,255.6c-.14-.43-4.21-2.97-5.45-4.55-10.2-13.08,2.57-30.32,17.16-23.16,10.61,5.21,9.77,21.85-.73,26.92-1.6,12.6,2.39,31.56-.41,43.36-.72,3.04-5.07,7.93-8.07,7.93h-45c-3.24-2.92-.72-7.4-.5-11h41.5l1.5-1.5v-38Z"/>
  <path class="cls-1" d="M927.62,327.76c-7.67,7.6-18.68,3.96-25.11-3.25-22.17,1.02-45.12,6.23-67.06,7.58-3.11.19-17.79.88-18.37-1.57l.88-8.43c27.95.13,55.5-6.25,83.38-8.12,4.17-9.82,13.57-15.3,23.55-9.29,7.27,4.38,8.59,17.29,2.74,23.08Z"/>
  <path class="cls-1" d="M494.96,86.1c-33.09-11.46-66.66-11.7-99.51.97-1.86-.16-2.86-12.83.2-14.78,2.29-1.46,13.23-4.62,16.53-5.47,22.78-5.85,46.51-6.18,69.22.34,2.19.63,11.46,3.52,12.56,4.44,2.22,1.85.44,11.24.99,14.5Z"/>
  <path class="cls-1" d="M394.96,96.1c31.74-11.64,68.5-13.61,99.72.44l-.73,12.56c-19.73-5.15-37.95-8.23-58.54-7.04-13.97.8-26.95,4.99-40.46,8.04v-14Z"/>
  <path class="cls-1" d="M493.96,119.1v14c-32.4-10.13-65.35-10.24-97.48,1-1.18-.17-2.34-13.11-.92-14.11,31.85-11.58,66.41-12.25,98.4-.89Z"/>
  <path class="cls-1" d="M493.96,142.1v14c-32.12-9.74-66.1-9.34-98,1v-14c31.97-11.36,65.76-11.04,98-1Z"/>
  <path class="cls-1" d="M493.86,165.2l.1,12.9c-32.72-8.17-65.47-8.31-97.99.99l.14-12.86c31.32-11.06,66.09-10.63,97.76-1.04Z"/>
  <path class="cls-1" d="M493.96,201.1c-32.42-9.55-64.46-7.83-96.99,0l-.05-12.34c.29-1.2,11.67-3.89,13.84-4.37,16.28-3.61,35.1-5.07,51.69-3.28,4.01.43,28.76,4.97,30.53,6.47,2.17,1.84.46,10.37.98,13.51Z"/>
  <path class="cls-1" d="M493.97,233.11l-1.01,12.99c-6.98-.99-13.83-3.55-20.76-4.73-15.04-2.55-34.44-2.2-49.61-.15-3.77.51-24.46,6.03-25.62,4.88l.1-12.91c31.67-9.43,65.28-9.97,96.91-.09Z"/>
  <path class="cls-1" d="M493.97,210.11l-1.01,12.99c-31.39-8.51-64.86-8.35-95.98,1,.51-3.11-1.19-11.72.97-13.51,3.61-2.99,36.22-7.15,42.52-7.48,18.09-.92,36.06,2.86,53.5,7Z"/>
  <path class="cls-1" d="M291.46,149.1l-1.01-2c5.64-5.89,11.26-14.18,19.47-16.54,8.92-2.57,24.21-1.95,33.01,1.07,4.18,1.44,9.64,6.67,11.74,7.26,2.53.71,5.69-.06,8.55.45,3.15.55,11.53,4.61,12.28,7.75l-1.05,2.02h-83Z"/>
  <rect class="cls-1" x="518.96" y="180.1" width="21" height="59.05"/>
  <path class="cls-1" d="M571.46,110.1c-3.23-.9-2.99-10.74-2.47-13.47,1.27-6.83,9.81-2.93,10.84-6.16l4.06-57.93h5.14s2.07,57.93,2.07,57.93l1.5,1.5c13.5-2.02,11.02,8.6,9.36,18.14h-30.5Z"/>
  <polygon class="cls-1" points="558.96 173.1 517.96 173.1 538.95 136.1 558.96 173.1"/>
  <path class="cls-1" d="M483.96,255.09c-12.12.15-24.51,4.27-36.46,5.05-15.96,1.04-33.73-1.73-49.55-3.54,24.34-7.9,51.81-10.4,77.05-5.04,2.68.57,7.53,1.12,8.96,3.53Z"/>
  <rect class="cls-1" x="547.96" y="180.1" width="11" height="57"/>
  <path class="cls-1" d="M226.96,153.1v-35l10.56.94v44.11c-8.75,13.46-24.4-2.79-10.56-10.05Z"/>
  <circle class="cls-1" cx="120.78" cy="161.48" r="7.19"/>
  <circle class="cls-1" cx="337.1" cy="163.37" r="6.77"/>
</svg>